<svg version="1.1" id="Layer_1" xmlns="http://www.w3.org/2000/svg" xmlns:xlink="http://www.w3.org/1999/xlink" x="0px" y="0px"
	 width="100%" viewBox="0 0 496 496" enable-background="new 0 0 496 496" xml:space="preserve">
<path fill="#000000" opacity="1.000000" stroke="none" 
	d="
M262.945038,262.065369 
	C263.067383,273.178040 262.135345,283.735901 259.015686,294.014099 
	C255.877167,304.354523 249.987305,313.187531 243.713211,321.804810 
	C243.232925,322.464478 242.718826,323.099548 242.016251,324.010925 
	C262.985291,315.818024 280.235016,296.506073 281.038208,273.663147 
	C281.184265,269.509949 281.607208,265.365112 281.701935,261.211884 
	C281.774719,258.019409 283.966156,256.348877 286.223022,255.112350 
	C288.894806,253.648514 289.794189,256.133392 290.230682,258.033600 
	C292.039154,265.906464 291.623016,273.866333 290.769226,281.816711 
	C290.663361,282.802582 290.578094,283.879028 290.129364,284.726013 
	C285.596008,293.282440 288.849976,300.741486 292.480835,308.728912 
	C306.538544,339.654297 320.173584,370.773254 333.746277,401.915894 
	C335.573212,406.107788 338.108368,408.003784 342.453979,407.663696 
	C346.663239,407.334259 348.383972,408.957184 348.428528,413.382294 
	C348.476227,418.125061 345.818573,418.207306 342.349792,418.379333 
	C324.249451,419.276947 306.158203,420.357208 288.058990,421.279785 
	C286.361664,421.366272 284.297791,421.980713 283.054291,420.020203 
	C281.338745,417.315430 282.627106,413.790619 285.796265,413.032959 
	C290.968964,411.796326 296.194305,410.777069 301.405273,409.704407 
	C304.389130,409.090179 305.207062,407.588013 304.007843,404.675781 
	C298.239380,390.667542 292.525970,376.636108 286.906799,362.567444 
	C285.857269,359.939789 284.193146,359.115417 281.524719,359.282928 
	C267.740631,360.148102 253.950821,360.921448 240.164307,361.748627 
	C233.354858,362.157166 226.549103,362.627411 219.739761,363.038208 
	C217.637680,363.165009 215.760849,363.507416 215.065872,365.926788 
	C210.528671,381.721558 205.972031,397.510712 201.380997,413.443024 
	C207.454056,416.867310 213.863525,415.319824 219.796051,416.521210 
	C222.901886,417.150146 225.289246,417.435394 225.248016,421.341797 
	C225.200974,425.796661 221.994522,425.153992 219.244370,425.322815 
	C203.974136,426.260101 188.138351,424.989227 173.589508,428.728363 
	C158.665497,432.563965 144.189148,430.412720 129.561768,431.164734 
	C114.772797,431.925049 99.914230,431.347351 85.086288,431.306641 
	C83.848671,431.303223 82.315582,431.596649 81.611649,429.470673 
	C103.005020,425.247131 124.643059,428.258118 146.084610,426.289154 
	C139.381042,422.841644 132.086197,424.704193 125.082481,424.411285 
	C118.034805,424.116547 110.900024,423.504181 103.950859,425.685059 
	C103.282860,423.169739 105.239166,422.479950 106.087418,421.198456 
	C108.838348,417.042389 112.538734,413.670776 110.904182,407.422852 
	C110.005211,403.986603 112.218956,399.700287 113.150253,395.826324 
	C124.341087,349.275024 135.558777,302.730164 146.756317,256.180481 
	C147.999680,251.011658 149.324982,245.854675 150.327820,240.637512 
	C152.434998,229.675125 148.262619,222.593933 137.887222,218.940109 
	C136.883926,218.586777 135.521240,218.658722 134.940201,217.307999 
	C136.726501,216.380554 138.555847,216.642090 140.345627,216.946625 
	C157.699005,219.899353 175.047287,218.751465 192.486649,217.589142 
	C204.381271,216.796356 216.564880,216.217697 228.244904,219.153381 
	C237.910324,221.582703 245.325714,227.858780 250.375778,236.652832 
	C251.248169,238.171997 251.537216,240.160675 253.932022,240.541962 
	C250.434296,232.505325 247.185883,224.272812 236.629929,221.243851 
	C247.843277,217.202240 274.222290,230.399826 277.046051,241.284805 
	C268.630127,234.085342 259.874847,227.534256 247.678833,225.094696 
	C259.702057,235.138046 260.978119,248.518509 262.945038,262.065369 
M232.118896,306.436768 
	C230.382446,312.171204 228.673004,317.914032 226.902527,323.637939 
	C224.819778,330.371490 217.610504,335.100159 210.126877,334.634796 
	C209.519287,332.243195 210.573273,330.045593 211.206741,327.886108 
	C218.607681,302.656342 226.289032,277.506958 233.447647,252.209351 
	C235.314163,245.613312 237.573837,240.749283 245.474533,241.476700 
	C245.800369,241.506699 246.187515,240.870834 246.895691,240.227692 
	C243.153015,231.334549 236.019516,226.386276 227.291077,223.267776 
	C217.663406,219.828003 207.630600,220.385162 197.642227,220.190384 
	C193.392670,220.107513 192.026459,221.810120 191.106461,225.722992 
	C182.506134,262.301453 173.703064,298.832336 164.916870,335.366943 
	C163.449448,341.468719 163.531204,341.604797 169.622635,341.704224 
	C186.486084,341.979401 203.078964,340.166321 219.750015,337.375854 
	C236.713470,334.536530 251.692368,328.300201 264.798798,317.483032 
	C272.689026,310.970947 278.710663,302.950897 281.665405,292.946747 
	C278.909058,296.415894 276.549927,300.155457 274.074097,303.816071 
	C262.109009,321.507019 242.419220,327.185516 224.498413,335.602875 
	C223.765839,335.946960 222.878220,336.032166 222.145767,335.206696 
	C222.231506,332.889221 224.441254,332.608276 225.844696,331.688812 
	C233.329163,326.785492 239.633224,320.847870 244.342300,313.095673 
	C246.621597,309.343475 246.463821,305.471954 247.152084,301.507935 
	C248.054031,296.313385 249.702499,291.198608 251.004990,286.041626 
	C253.074966,277.845856 247.472748,272.552460 245.234467,265.992981 
	C244.738647,265.997253 244.242828,266.001495 243.747009,266.005768 
	C239.928268,279.219391 236.109512,292.433044 232.118896,306.436768 
M157.901962,251.246567 
	C153.939377,267.568695 149.969055,283.888947 146.016190,300.213409 
	C141.357376,319.453308 136.700729,338.693726 132.068069,357.939941 
	C129.112442,370.219025 126.082001,382.482086 123.318611,394.804688 
	C121.781342,401.659760 120.145958,408.369598 116.087662,414.305817 
	C114.889549,416.058319 113.134399,417.871277 113.468254,420.847626 
	C120.813385,420.847626 127.955841,420.876434 135.097885,420.834717 
	C138.358490,420.815674 139.113892,418.998230 138.152634,416.169830 
	C136.771881,412.107025 136.739151,408.069000 137.761459,403.878845 
	C144.384445,376.733093 150.963242,349.576385 157.462585,322.400757 
	C164.124420,294.545776 170.671173,266.663300 177.287018,238.797302 
	C178.542969,233.507309 179.886398,228.238083 181.312775,222.459732 
	C173.517441,221.729599 166.214828,221.821182 158.051620,222.584061 
	C161.175613,228.701187 161.999695,234.297714 160.314972,240.182693 
	C159.354233,243.538712 158.794128,247.009415 157.901962,251.246567 
M167.050323,420.221802 
	C171.087738,419.241364 175.087341,418.039490 179.173019,417.341522 
	C183.431046,416.614105 185.713852,414.598877 186.912079,410.245178 
	C190.484406,397.265137 194.576431,384.428864 198.392426,371.514862 
	C201.007996,362.663330 203.501694,353.775787 206.225204,344.293884 
	C193.412094,345.427734 181.137756,345.208710 168.876266,344.953644 
	C164.388275,344.860291 162.358429,346.313019 161.336227,350.728546 
	C157.587677,366.921173 153.746933,383.102112 149.415833,399.145721 
	C147.496902,406.253998 148.082855,413.487762 146.990921,420.621277 
	C146.254349,425.433167 150.991333,427.586182 159.623032,428.176544 
	C164.446228,428.506409 166.441895,427.207520 165.458405,422.269562 
	C165.365173,421.801453 166.069855,421.174377 167.050323,420.221802 
M254.992371,329.578247 
	C245.944504,334.675415 236.355896,338.518951 226.238770,340.702637 
	C221.118439,341.807831 220.069458,344.708801 220.194519,349.570099 
	C240.062469,348.443085 259.633148,347.332947 279.973633,346.179138 
	C276.087921,337.050049 272.612061,328.883881 268.949951,320.280060 
	C264.115509,323.537109 259.881531,326.389618 254.992371,329.578247 
z"/>
</svg>